# xmcd
#
# Track frame offsets:
#	150
#	19142
#	39621
#	56495
#	69726
#	88502
#	101958
#	123423
#	143687
#	161051
#	177708
#	200031
#	209247
#	215097
#	229123
#	241470
#	257654
#	277396
#	290131
#
# Disc length: 4125 seconds
#
# Revision: 3
# Processed by: cddbd v1.5.2PL0 Copyright (c) Steve Scherf et al.
# Submitted via: EasyCDDAExtractor 15.3.0.1
#
DISCID=42101b13
DTITLE=Shania Twain - Still The One - Live From Las Vegas
DYEAR=2015
DGENRE=Country
TTITLE0=I'm Gonna Getcha Good!
TTITLE1=You Win My Love
TTITLE2=Don't Be Stupid (You Know I Love You)
TTITLE3=Up!
TTITLE4=I Ain't No Quitter
TTITLE5=No One Needs To Know
TTITLE6=Whose Bed Have Your Boots Been Under
TTITLE7=Any Man Of Mine
TTITLE8=That Don't Impress Me Much
TTITLE9=Honey, I'm Home
TTITLE10=(If You're Not In It For Love) I'm Outta Here!
TTITLE11=Come On Over (Acoustic)
TTITLE12=Love Gets Me Every Time (Acoustic)
TTITLE13=Rock This Country! (Acoustic)
TTITLE14=Today Is Your Day (Acoustic)
TTITLE15=You're Still The One
TTITLE16=From This Moment On
TTITLE17=Red Storm
TTITLE18=Man! I Feel Like A Woman!
EXTD=
EXTT0=
EXTT1=
EXTT2=
EXTT3=
EXTT4=
EXTT5=
EXTT6=
EXTT7=
EXTT8=
EXTT9=
EXTT10=
EXTT11=
EXTT12=
EXTT13=
EXTT14=
EXTT15=
EXTT16=
EXTT17=
EXTT18=
PLAYORDER=
